<svg width="18" height="17" viewBox="0 0 18 17" fill="none" xmlns="http://www.w3.org/2000/svg">
<path fill-rule="evenodd" clip-rule="evenodd" d="M14.25 8.56547C14.25 8.08954 14.55 7.77226 15 7.77226C15.45 7.77226 15.75 8.08954 15.75 8.56547V14.118C15.75 15.4665 14.775 16.4976 13.5 16.4976H3C1.725 16.4976 0.75 15.4665 0.75 14.118V3.01295C0.75 1.66448 1.725 0.633301 3 0.633301H11.25C11.7 0.633301 12 0.950588 12 1.42652C12 1.90245 11.7 2.21974 11.25 2.21974H3C2.55 2.21974 2.25 2.53702 2.25 3.01295V14.118C2.25 14.5939 2.55 14.9112 3 14.9112H13.5C13.95 14.9112 14.25 14.5939 14.25 14.118V8.56547ZM8.775 10.7072L17.025 1.98177C17.325 1.66448 17.325 1.18855 17.025 0.871266C16.725 0.553979 16.275 0.553979 15.975 0.871266L8.25 9.0414L6.525 7.217C6.225 6.89972 5.775 6.89972 5.475 7.217C5.175 7.53429 5.175 8.01022 5.475 8.32751L7.725 10.7072C7.875 10.8658 8.025 10.9451 8.25 10.9451C8.475 10.9451 8.625 10.8658 8.775 10.7072Z" fill="#5E5873"/>
</svg>
