<svg width="18" height="9" viewBox="0 0 18 9" fill="none" xmlns="http://www.w3.org/2000/svg">
<path fill-rule="evenodd" clip-rule="evenodd" d="M5.25 4.84267C5.25 5.11403 5.27463 5.37829 5.3217 5.63313C5.29826 5.63496 5.27435 5.63589 5.25 5.63589H0.75C0.3 5.63589 0 5.3186 0 4.84267C0 4.36674 0.3 4.04946 0.75 4.04946H5.25C5.27435 4.04946 5.29826 4.05039 5.3217 4.05222C5.27463 4.30706 5.25 4.57131 5.25 4.84267ZM12.6783 4.05222C12.3401 2.22129 10.8434 0.876587 9 0.876587C7.15658 0.876587 5.65991 2.22129 5.3217 4.05222C5.73159 4.08426 6 4.3925 6 4.84267C6 5.29285 5.73159 5.60109 5.3217 5.63313C5.65991 7.46406 7.15658 8.80876 9 8.80876C10.8434 8.80876 12.3401 7.46406 12.6783 5.63313C12.7017 5.63496 12.7257 5.63589 12.75 5.63589H17.25C17.625 5.63589 18 5.3186 18 4.84267C18 4.36674 17.7 4.04946 17.25 4.04946H12.75C12.7257 4.04946 12.7017 4.05039 12.6783 4.05222ZM12.6783 4.05222C12.7254 4.30706 12.75 4.57131 12.75 4.84267C12.75 5.11403 12.7254 5.37829 12.6783 5.63313C12.2684 5.60109 12 5.29285 12 4.84267C12 4.3925 12.2684 4.08426 12.6783 4.05222ZM6.75 4.84267C6.75 3.4942 7.725 2.46302 9 2.46302C10.275 2.46302 11.25 3.4942 11.25 4.84267C11.25 6.19114 10.275 7.22233 9 7.22233C7.725 7.22233 6.75 6.19114 6.75 4.84267Z" fill="#5E5873"/>
</svg>
