<svg width="21" height="23" viewBox="0 0 21 23" fill="none" xmlns="http://www.w3.org/2000/svg">
<path d="M18.7378 2.85714H16.5809V0.535714C16.5809 0.241071 16.3382 0 16.0416 0H15.6821C15.3855 0 15.1429 0.241071 15.1429 0.535714V2.85714H6.51507V0.535714C6.51507 0.241071 6.27241 0 5.97583 0H5.61634C5.31975 0 5.0771 0.241071 5.0771 0.535714V2.85714H2.92014C1.72932 2.85714 0.763184 3.81696 0.763184 5V20.7143C0.763184 21.8973 1.72932 22.8571 2.92014 22.8571H18.7378C19.9286 22.8571 20.8948 21.8973 20.8948 20.7143V5C20.8948 3.81696 19.9286 2.85714 18.7378 2.85714ZM2.92014 4.28571H18.7378C19.1333 4.28571 19.4568 4.60714 19.4568 5V7.14286H2.20115V5C2.20115 4.60714 2.5247 4.28571 2.92014 4.28571ZM18.7378 21.4286H2.92014C2.5247 21.4286 2.20115 21.1071 2.20115 20.7143V8.57143H19.4568V20.7143C19.4568 21.1071 19.1333 21.4286 18.7378 21.4286ZM7.4138 14.2857H5.61634C5.31975 14.2857 5.0771 14.0446 5.0771 13.75V11.9643C5.0771 11.6696 5.31975 11.4286 5.61634 11.4286H7.4138C7.71038 11.4286 7.95304 11.6696 7.95304 11.9643V13.75C7.95304 14.0446 7.71038 14.2857 7.4138 14.2857ZM11.7277 14.2857H9.93025C9.63367 14.2857 9.39101 14.0446 9.39101 13.75V11.9643C9.39101 11.6696 9.63367 11.4286 9.93025 11.4286H11.7277C12.0243 11.4286 12.267 11.6696 12.267 11.9643V13.75C12.267 14.0446 12.0243 14.2857 11.7277 14.2857ZM16.0416 14.2857H14.2442C13.9476 14.2857 13.7049 14.0446 13.7049 13.75V11.9643C13.7049 11.6696 13.9476 11.4286 14.2442 11.4286H16.0416C16.3382 11.4286 16.5809 11.6696 16.5809 11.9643V13.75C16.5809 14.0446 16.3382 14.2857 16.0416 14.2857ZM11.7277 18.5714H9.93025C9.63367 18.5714 9.39101 18.3304 9.39101 18.0357V16.25C9.39101 15.9554 9.63367 15.7143 9.93025 15.7143H11.7277C12.0243 15.7143 12.267 15.9554 12.267 16.25V18.0357C12.267 18.3304 12.0243 18.5714 11.7277 18.5714ZM7.4138 18.5714H5.61634C5.31975 18.5714 5.0771 18.3304 5.0771 18.0357V16.25C5.0771 15.9554 5.31975 15.7143 5.61634 15.7143H7.4138C7.71038 15.7143 7.95304 15.9554 7.95304 16.25V18.0357C7.95304 18.3304 7.71038 18.5714 7.4138 18.5714ZM16.0416 18.5714H14.2442C13.9476 18.5714 13.7049 18.3304 13.7049 18.0357V16.25C13.7049 15.9554 13.9476 15.7143 14.2442 15.7143H16.0416C16.3382 15.7143 16.5809 15.9554 16.5809 16.25V18.0357C16.5809 18.3304 16.3382 18.5714 16.0416 18.5714Z" fill="#4190F3"/>
</svg>
