<svg width="18" height="13" viewBox="0 0 18 13" fill="none" xmlns="http://www.w3.org/2000/svg">
<path d="M18 1.77845V6.53775C18 7.01368 17.7 7.33097 17.25 7.33097C16.8 7.33097 16.5 7.01368 16.5 6.53775V3.68217L10.65 9.86926C10.35 10.1865 9.9 10.1865 9.6 9.86926L6.375 6.45843L1.275 11.8523C1.125 12.0109 0.975 12.0903 0.75 12.0903C0.525 12.0903 0.375 12.0109 0.225 11.8523C-0.075 11.535 -0.075 11.0591 0.225 10.7418L5.85 4.79267C6.15 4.47539 6.6 4.47539 6.9 4.79267L10.125 8.20351L15.45 2.57166H12.75C12.3 2.57166 12 2.25438 12 1.77845C12 1.30252 12.3 0.985229 12.75 0.985229H17.25C17.325 0.985229 17.475 0.985229 17.55 1.06455C17.7 1.14387 17.85 1.30252 17.925 1.46116C18 1.54048 18 1.69912 18 1.77845Z" fill="#5E5873"/>
</svg>
