<svg width="16" height="17" viewBox="0 0 16 17" fill="none" xmlns="http://www.w3.org/2000/svg">
<path fill-rule="evenodd" clip-rule="evenodd" d="M1.25 0.215454H6.5C6.95 0.215454 7.25 0.532741 7.25 1.00867V6.56119C7.25 7.03712 6.95 7.35441 6.5 7.35441H1.25C0.8 7.35441 0.5 7.03712 0.5 6.56119V1.00867C0.5 0.532741 0.8 0.215454 1.25 0.215454ZM2 5.76797H5.75V1.80189H2V5.76797ZM14.75 0.215454H9.5C9.05 0.215454 8.75 0.532741 8.75 1.00867V6.56119C8.75 7.03712 9.05 7.35441 9.5 7.35441H14.75C15.2 7.35441 15.5 7.03712 15.5 6.56119V1.00867C15.5 0.532741 15.2 0.215454 14.75 0.215454ZM10.25 5.76797H14V1.80189H10.25V5.76797ZM14.75 8.94084H9.5C9.05 8.94084 8.75 9.25813 8.75 9.73406V15.2866C8.75 15.7625 9.05 16.0798 9.5 16.0798H14.75C15.2 16.0798 15.5 15.7625 15.5 15.2866V9.73406C15.5 9.25813 15.2 8.94084 14.75 8.94084ZM10.25 14.4934H14V10.5273H10.25V14.4934ZM6.5 8.94084H1.25C0.8 8.94084 0.5 9.25813 0.5 9.73406V15.2866C0.5 15.7625 0.8 16.0798 1.25 16.0798H6.5C6.95 16.0798 7.25 15.7625 7.25 15.2866V9.73406C7.25 9.25813 6.95 8.94084 6.5 8.94084ZM2 14.4934H5.75V10.5273H2V14.4934Z" fill="#5E5873"/>
</svg>
