<svg width="16" height="17" viewBox="0 0 16 17" fill="none" xmlns="http://www.w3.org/2000/svg">
<path d="M7.99754 16.9948C5.87588 16.9968 3.84056 16.1548 2.34032 14.6545C0.840075 13.1543 -0.00190559 11.119 3.23852e-06 8.99731V8.83736C0.0654135 5.63212 2.03761 2.77535 5.01155 1.57804C7.98548 0.380737 11.387 1.07407 13.655 3.33985C15.9443 5.62721 16.6294 9.06875 15.3907 12.0585C14.152 15.0482 11.2337 16.9967 7.99754 16.9948ZM7.99754 10.125L10.0689 12.1963L11.1966 11.0687L9.12519 8.99731L11.1966 6.92595L10.0689 5.79829L7.99754 7.86966L5.92618 5.79829L4.79853 6.92595L6.86989 8.99731L4.79853 11.0687L5.92618 12.1963L7.99754 10.1258V10.125Z" fill="#FF3358"/>
</svg>
