<svg width="16" height="17" viewBox="0 0 16 17" fill="none" xmlns="http://www.w3.org/2000/svg">
<path fill-rule="evenodd" clip-rule="evenodd" d="M11.9 11.5832L15.275 15.1527C15.575 15.47 15.575 15.9459 15.275 16.2632C15.125 16.4219 14.9 16.5012 14.75 16.5012C14.6 16.5012 14.375 16.4219 14.225 16.2632L10.85 12.6937C9.725 13.5663 8.375 14.1215 6.875 14.1215C3.35 14.1215 0.5 11.1073 0.5 7.37919C0.5 3.65107 3.35 0.636841 6.875 0.636841C10.4 0.636841 13.25 3.65107 13.25 7.37919C13.25 8.96562 12.725 10.4727 11.9 11.5832ZM6.875 2.22328C4.175 2.22328 2 4.52361 2 7.37919C2 10.2348 4.175 12.5351 6.875 12.5351C8.225 12.5351 9.425 11.9798 10.325 11.028C11.225 10.0761 11.75 8.80698 11.75 7.37919C11.75 4.52361 9.575 2.22328 6.875 2.22328Z" fill="#5E5873"/>
</svg>
