<svg width="432" height="432" viewBox="0 0 432 432" fill="none" xmlns="http://www.w3.org/2000/svg">
<path d="M432 330.394H0V330.61H432V330.394Z" fill="#E6E6E6"/>
<path d="M107.844 343.466H79.2288V343.682H107.844V343.466Z" fill="#E6E6E6"/>
<path d="M70.1741 343.466H53.5939V343.682H70.1741V343.466Z" fill="#E6E6E6"/>
<path d="M181.915 346.645H165.335V346.861H181.915V346.645Z" fill="#E6E6E6"/>
<path d="M268.367 351.467H231.051V351.683H268.367V351.467Z" fill="#E6E6E6"/>
<path d="M223.361 351.467H217.892V351.683H223.361V351.467Z" fill="#E6E6E6"/>
<path d="M391.694 346.645H310.755V346.861H391.694V346.645Z" fill="#E6E6E6"/>
<path d="M204.768 291.859H37.9382C36.6313 291.857 35.3787 291.336 34.4553 290.411C33.532 289.486 33.0134 288.233 33.0134 286.926V52.4103C33.0248 51.1108 33.5484 49.8684 34.4705 48.9527C35.3926 48.0371 36.6387 47.5222 37.9382 47.52H204.768C206.076 47.52 207.331 48.0398 208.256 48.965C209.182 49.8902 209.701 51.145 209.701 52.4535V286.926C209.701 288.234 209.182 289.489 208.256 290.414C207.331 291.339 206.076 291.859 204.768 291.859V291.859ZM37.9382 47.6928C36.6886 47.6951 35.4909 48.1931 34.6081 49.0776C33.7253 49.962 33.2294 51.1606 33.2294 52.4103V286.926C33.2294 288.175 33.7253 289.374 34.6081 290.258C35.4909 291.143 36.6886 291.641 37.9382 291.643H204.768C206.018 291.641 207.217 291.143 208.101 290.259C208.985 289.375 209.483 288.176 209.485 286.926V52.4103C209.483 51.1598 208.985 49.9612 208.101 49.077C207.217 48.1929 206.018 47.6951 204.768 47.6928H37.9382Z" fill="#E6E6E6"/>
<path d="M391.66 291.859H224.821C223.514 291.857 222.26 291.336 221.336 290.412C220.411 289.487 219.89 288.234 219.888 286.926V52.4103C219.902 51.11 220.427 49.8676 221.351 48.9522C222.274 48.0368 223.521 47.5222 224.821 47.52H391.66C392.958 47.5245 394.202 48.0404 395.122 48.9558C396.042 49.8711 396.565 51.1123 396.576 52.4103V286.926C396.576 288.231 396.059 289.483 395.137 290.408C394.216 291.333 392.965 291.855 391.66 291.859V291.859ZM224.821 47.6928C223.571 47.6951 222.372 48.1929 221.488 49.077C220.604 49.9612 220.106 51.1598 220.104 52.4103V286.926C220.106 288.176 220.604 289.375 221.488 290.259C222.372 291.143 223.571 291.641 224.821 291.643H391.66C392.91 291.641 394.109 291.143 394.993 290.259C395.877 289.375 396.375 288.176 396.377 286.926V52.4103C396.375 51.1598 395.877 49.9612 394.993 49.077C394.109 48.1929 392.91 47.6951 391.66 47.6928H224.821Z" fill="#E6E6E6"/>
<path d="M231.034 256.591H212.034V331.957H231.034V256.591Z" fill="#E0E0E0"/>
<path d="M227.422 331.957H231.034V321.693H223.638L227.422 331.957Z" fill="#FAFAFA"/>
<path d="M147.779 256.591H128.779V331.957H147.779V256.591Z" fill="#E0E0E0"/>
<path d="M231.034 256.591H144.634V325.659H231.034V256.591Z" fill="#FAFAFA"/>
<path d="M227.897 259.986V278.26H147.744V259.986H227.871H227.897ZM228.208 259.649H147.433V278.588H228.234V259.649H228.208Z" fill="#E0E0E0"/>
<path d="M148.236 331.957H144.634V321.693H152.021L148.236 331.957Z" fill="#FAFAFA"/>
<path d="M185.924 269.119C185.924 269.496 186.036 269.866 186.246 270.18C186.456 270.494 186.754 270.738 187.103 270.883C187.452 271.027 187.836 271.065 188.206 270.991C188.577 270.918 188.917 270.736 189.184 270.469C189.451 270.202 189.633 269.862 189.706 269.491C189.78 269.121 189.742 268.737 189.598 268.388C189.453 268.039 189.208 267.741 188.894 267.531C188.58 267.321 188.211 267.209 187.834 267.209C187.327 267.209 186.842 267.41 186.483 267.769C186.125 268.127 185.924 268.612 185.924 269.119V269.119Z" fill="#E6E6E6"/>
<path d="M227.897 281.984V300.257H147.744V281.984H227.871H227.897ZM228.208 281.655H147.433V300.594H228.234V281.664L228.208 281.655Z" fill="#E0E0E0"/>
<path d="M185.924 291.168C185.924 291.546 186.036 291.915 186.246 292.229C186.456 292.543 186.754 292.788 187.103 292.932C187.452 293.077 187.836 293.114 188.206 293.041C188.577 292.967 188.917 292.785 189.184 292.518C189.451 292.251 189.633 291.911 189.706 291.541C189.78 291.17 189.742 290.786 189.598 290.437C189.453 290.088 189.208 289.79 188.894 289.58C188.58 289.371 188.211 289.259 187.834 289.259C187.327 289.259 186.842 289.46 186.483 289.818C186.125 290.176 185.924 290.662 185.924 291.168Z" fill="#E6E6E6"/>
<path d="M227.897 303.99V322.272H147.744V303.99H227.871H227.897ZM228.208 303.653H147.433V322.6H228.234V303.653H228.208Z" fill="#E0E0E0"/>
<path d="M185.924 313.131C185.926 313.508 186.039 313.877 186.25 314.189C186.461 314.502 186.76 314.746 187.109 314.889C187.458 315.032 187.842 315.069 188.211 314.994C188.581 314.919 188.921 314.737 189.187 314.469C189.453 314.202 189.634 313.862 189.707 313.492C189.78 313.122 189.742 312.738 189.597 312.39C189.452 312.041 189.207 311.744 188.894 311.534C188.58 311.325 188.211 311.213 187.834 311.213C187.582 311.213 187.333 311.263 187.101 311.359C186.869 311.456 186.658 311.597 186.48 311.775C186.303 311.953 186.162 312.165 186.067 312.398C185.972 312.63 185.923 312.879 185.924 313.131V313.131Z" fill="#E6E6E6"/>
<path d="M136.175 212.82H117.176V331.966H136.175V212.82Z" fill="#E0E0E0"/>
<path d="M132.564 331.957H136.175V321.693H128.788L132.564 331.957Z" fill="#FAFAFA"/>
<path d="M65.1715 212.82H46.1721V331.966H65.1715V212.82Z" fill="#E0E0E0"/>
<path d="M136.175 212.82H62.0179V325.668H136.175V212.82Z" fill="#FAFAFA"/>
<path d="M132.978 216V241.548H65.2147V216H132.978V216ZM133.376 215.611H64.8V241.92H133.358V215.62L133.376 215.611Z" fill="#E0E0E0"/>
<path d="M132.978 244.668V312.431H100.699V244.668H132.978ZM133.376 244.27H100.31V312.828H133.376V244.27Z" fill="#E0E0E0"/>
<path d="M97.4937 244.668V312.431H65.2147V244.668H97.4937ZM97.8825 244.27H64.8V312.828H97.8653V244.27H97.8825Z" fill="#E0E0E0"/>
<path d="M65.6294 331.957H62.0179V321.693H69.4138L65.6294 331.957Z" fill="#FAFAFA"/>
<path d="M97.1827 228.787C97.181 229.167 97.2921 229.539 97.5018 229.855C97.7115 230.172 98.0105 230.419 98.3608 230.565C98.7111 230.712 99.097 230.751 99.4697 230.678C99.8423 230.605 100.185 230.423 100.454 230.155C100.723 229.887 100.907 229.546 100.981 229.173C101.056 228.801 101.019 228.415 100.874 228.064C100.729 227.713 100.483 227.413 100.167 227.202C99.8517 226.991 99.4805 226.878 99.1008 226.878C98.5936 226.878 98.107 227.079 97.7476 227.437C97.3881 227.794 97.185 228.28 97.1827 228.787Z" fill="#E6E6E6"/>
<path d="M104.026 276.938C104.026 277.318 104.138 277.689 104.349 278.004C104.561 278.32 104.861 278.566 105.212 278.711C105.563 278.856 105.949 278.893 106.321 278.819C106.693 278.744 107.035 278.56 107.303 278.291C107.571 278.022 107.753 277.679 107.826 277.307C107.899 276.934 107.86 276.548 107.713 276.198C107.567 275.848 107.32 275.549 107.003 275.339C106.686 275.129 106.315 275.018 105.935 275.02C105.684 275.02 105.435 275.07 105.202 275.166C104.97 275.263 104.759 275.404 104.582 275.582C104.404 275.76 104.264 275.972 104.168 276.205C104.073 276.437 104.024 276.686 104.026 276.938V276.938Z" fill="#E6E6E6"/>
<path d="M90.3485 276.938C90.3502 277.315 90.4636 277.684 90.6745 277.996C90.8853 278.309 91.1841 278.553 91.5332 278.696C91.8822 278.839 92.2659 278.876 92.6357 278.801C93.0055 278.726 93.3449 278.544 93.6111 278.276C93.8773 278.009 94.0583 277.669 94.1313 277.299C94.2042 276.928 94.1659 276.545 94.0212 276.197C93.8764 275.848 93.6316 275.55 93.3178 275.341C93.004 275.132 92.6352 275.02 92.2579 275.02C92.0064 275.02 91.7574 275.07 91.5252 275.166C91.293 275.263 91.0821 275.404 90.9047 275.582C90.7272 275.76 90.5868 275.972 90.4913 276.205C90.3959 276.437 90.3473 276.686 90.3485 276.938V276.938Z" fill="#E6E6E6"/>
<path d="M88.1885 179.6H80.1792C80.9173 183.485 81.3821 187.417 81.5702 191.367C81.5702 195.687 75.4704 212.82 84.1622 212.82C92.8541 212.82 86.7542 195.731 86.7542 191.367C86.9566 187.416 87.4359 183.484 88.1885 179.6V179.6Z" fill="#E0E0E0"/>
<path d="M57.7152 197.122V202.306C57.7243 205.085 58.8323 207.747 60.7974 209.712C62.7625 211.677 65.4251 212.785 68.2042 212.795H73.3882C76.1672 212.785 78.8298 211.677 80.7949 209.712C82.76 207.747 83.868 205.085 83.8771 202.306V197.122H57.7152Z" fill="#F5F5F5"/>
<path d="M169.059 245.601C169.059 251.649 175.824 256.591 184.092 256.591H191.557C199.826 256.591 206.591 251.649 206.591 245.601H169.059Z" fill="#E0E0E0"/>
<path d="M366.863 236.736C362.336 240.434 356.08 247.199 350.361 256.72C346.542 263.062 344.244 269.68 343.233 278.476C343.233 268.54 343.293 257.869 343.328 247.795C344.477 245.203 347.103 239.224 348.987 234.507C355.268 218.756 357.627 214.877 363.269 201.295C370.812 183.151 378.536 161.672 376.324 163.391C371.814 166.89 354.534 199.247 352.668 203.878C347.581 216.237 344.436 229.308 343.345 242.629C343.345 233.125 343.414 224.484 343.449 217.78C343.57 195.912 343.941 188.853 344.123 186.676C344.822 185.57 345.643 184.283 346.127 183.591C350.188 177.716 351.752 172.722 355.571 163.961C360.997 151.563 365.662 129.54 364.297 130.645C358.612 135.277 354.136 145.213 348.244 157.887C342.351 170.562 344.036 177.846 342.87 188.663C342.628 190.789 342.438 198.806 342.3 209.909C340.779 198.072 337.91 190.279 332.683 183.194C326.255 174.476 320.034 168.592 315.472 165.517C310.91 162.441 323.352 183.851 329.296 193.165C334.593 201.493 339.474 208.829 342.256 216.061C342.109 231.12 342.04 250.18 342.04 267.901C340.675 259.831 338.446 251.13 335.474 244.4C331.897 236.313 326.402 223.906 322.021 219.698C320.976 218.687 326.601 242.819 330.212 249.229C333.824 255.64 336.476 261.697 338.748 265.334C339.276 266.198 341.038 269.456 342.04 271.339C342.04 293 342.161 312.111 342.351 318.617H343.285C343.224 316.941 343.207 305.917 343.233 291.332C345.488 283.418 350.637 274.381 354.888 266.138C359.519 257.213 371.39 233.064 366.863 236.736Z" fill="#E0E0E0"/>
<path d="M356.348 331.957H329.27L327.223 305.415H358.396L356.348 331.957Z" fill="#F0F0F0"/>
<path d="M360.409 308.509H325.201L324.199 299.549H361.42L360.409 308.509Z" fill="#F5F5F5"/>
<path d="M107.361 65.232H58.9334V118.411H107.361V65.232Z" fill="#E0E0E0"/>
<path d="M112.605 65.232H62.5795V118.411H112.605V65.232Z" fill="#F5F5F5"/>
<path d="M108.415 114.221V69.4224H66.7699V114.221H108.415Z" fill="white"/>
<path d="M98.3146 103.352V80.2743H76.8615V103.352H98.3146Z" fill="#F5F5F5"/>
<path d="M354.283 71.4269H309.295V120.83H354.283V71.4269Z" fill="#E0E0E0"/>
<path d="M359.156 71.4269H312.69V120.83H359.156V71.4269Z" fill="#F5F5F5"/>
<path d="M355.268 116.934V75.3235H316.587V116.934H355.268Z" fill="white"/>
<path d="M335.923 108.199C342.589 108.199 347.993 102.795 347.993 96.1287C347.993 89.4626 342.589 84.0586 335.923 84.0586C329.257 84.0586 323.853 89.4626 323.853 96.1287C323.853 102.795 329.257 108.199 335.923 108.199Z" fill="#F5F5F5"/>
<path d="M157.671 96.9408H121.746V136.391H157.671V96.9408Z" fill="#E0E0E0"/>
<path d="M161.559 96.9408H124.451V136.391H161.559V96.9408Z" fill="#F5F5F5"/>
<path d="M158.449 133.281V100.051H127.561V133.281H158.449Z" fill="white"/>
<path d="M143.009 108.259L134.559 122.895H151.459L143.009 108.259Z" fill="#F5F5F5"/>
<path d="M216 369.412C308.519 369.412 383.521 365.033 383.521 359.631C383.521 354.23 308.519 349.851 216 349.851C123.481 349.851 48.479 354.23 48.479 359.631C48.479 365.033 123.481 369.412 216 369.412Z" fill="#F5F5F5"/>
<path d="M301.752 141.203L293.181 137.747C293.181 137.747 281.871 158.371 278.631 159.417C274.225 160.834 265.101 164.773 259.692 165.465C258.958 166.329 257.757 169.016 257.869 169.992C265.136 172.42 281.102 169.197 284.524 166.657C292.308 160.894 301.752 141.203 301.752 141.203Z" fill="#E58A7B"/>
<path d="M304.387 136.512C305.986 142.413 297.328 154.284 297.328 154.284L285.984 147.925C285.984 147.925 288.109 143.044 290.701 138.076C294.857 130.049 302.564 129.781 304.387 136.512Z" fill="#3B75BE"/>
<path opacity="0.2" d="M304.387 136.512C305.986 142.413 297.328 154.284 297.328 154.284L285.984 147.925C285.984 147.925 288.109 143.044 290.701 138.076C294.857 130.049 302.564 129.781 304.387 136.512Z" fill="black"/>
<path opacity="0.2" d="M290.485 150.466L294.952 152.971L295.739 139.26C293.138 141.255 291.306 147.269 290.485 150.466Z" fill="black"/>
<path d="M296.922 132.071C296.922 132.071 288.092 151.718 293.242 188.3H328.035C328.588 182.961 326.756 156.902 333.383 131.743C329.566 130.997 325.704 130.503 321.823 130.265C316.899 129.98 311.963 129.98 307.04 130.265C303.627 130.612 300.244 131.215 296.922 132.071V132.071Z" fill="#3B75BE"/>
<path opacity="0.2" d="M296.922 132.071C296.922 132.071 288.092 151.718 293.242 188.3H328.035C328.588 182.961 326.756 156.902 333.383 131.743C329.566 130.997 325.704 130.503 321.823 130.265C316.899 129.98 311.963 129.98 307.04 130.265C303.627 130.612 300.244 131.215 296.922 132.071V132.071Z" fill="black"/>
<g style="mix-blend-mode:multiply">
<path d="M288.852 360.409C288.801 361.342 301.994 362.094 318.315 362.094C334.636 362.094 347.924 361.342 347.976 360.409C348.028 359.476 334.843 358.733 318.514 358.733C302.184 358.733 288.913 359.484 288.852 360.409Z" fill="#E8ECF1"/>
</g>
<path d="M312.077 335.891L305.906 338.28L311.222 352.012L317.393 349.623L312.077 335.891Z" fill="#E58A7B"/>
<path d="M339.595 353.765H333.089L330.705 338.705H337.211L339.595 353.765Z" fill="#E58A7B"/>
<path d="M332.64 353.013H339.949C340.076 353.013 340.199 353.059 340.295 353.141C340.392 353.223 340.456 353.337 340.476 353.462L341.418 359.243C341.438 359.388 341.426 359.535 341.384 359.675C341.342 359.815 341.27 359.945 341.173 360.055C341.077 360.164 340.957 360.252 340.824 360.312C340.69 360.371 340.545 360.402 340.399 360.4C337.85 360.357 336.623 360.202 333.409 360.202C331.43 360.202 327.361 360.409 324.613 360.409C321.866 360.409 321.684 357.713 322.816 357.463C327.897 356.365 329.867 354.871 331.56 353.419C331.859 353.157 332.243 353.012 332.64 353.013V353.013Z" fill="#263238"/>
<path d="M311.04 350.784L317.952 348.762C318.075 348.727 318.207 348.736 318.325 348.786C318.443 348.836 318.54 348.926 318.6 349.039L321.192 354.223C321.252 354.354 321.283 354.497 321.282 354.642C321.281 354.787 321.249 354.929 321.187 355.06C321.125 355.191 321.036 355.307 320.925 355.399C320.814 355.492 320.684 355.559 320.544 355.596C318.03 356.288 316.345 356.711 313.2 357.627C311.031 358.258 308.82 359.286 306.677 359.968C305.191 360.443 301.7 360.461 299.894 360.461C297.225 360.461 296.628 357.644 297.778 357.515C300.672 357.195 301.061 357.342 302.659 356.538C305.275 355.395 307.645 353.758 309.64 351.717C310.017 351.288 310.499 350.966 311.04 350.784V350.784Z" fill="#263238"/>
<path d="M260.781 165.43L253.627 162.432L250.681 170.364C253.613 170.81 256.596 170.81 259.528 170.364L260.781 165.43Z" fill="#E58A7B"/>
<path d="M248.305 162.225L248.115 167.495L250.681 170.346L253.627 162.415L248.305 162.225Z" fill="#E58A7B"/>
<path d="M312.924 337.057L306.734 339.447L309.475 346.548L315.665 344.158L312.924 337.057Z" fill="#CF6F64"/>
<path d="M337.211 338.705H330.705L331.94 346.473H338.446L337.211 338.705Z" fill="#CF6F64"/>
<path opacity="0.2" d="M292.136 178.407C292.265 179.971 292.412 181.57 292.602 183.211L318.47 174.813C322.51 173.616 326.021 171.077 328.424 167.616C328.527 165.309 328.657 162.881 328.856 160.35C328.942 159.123 329.046 157.861 329.158 156.583C329.27 155.304 329.426 153.887 329.59 152.522L292.136 178.407Z" fill="black"/>
<path d="M300.586 150.068L299.722 149.964C300.231 145.644 303.454 142.24 306.85 142.327V143.191C303.877 143.13 301.044 146.197 300.586 150.068Z" fill="white"/>
<path d="M305.191 158.043H305.044V157.179C308.016 157.291 310.807 154.189 311.265 150.327L312.129 150.431C311.671 154.656 308.552 158.043 305.191 158.043Z" fill="white"/>
<path d="M321.339 113.616C320.121 118.377 318.686 127.094 321.823 130.265C321.823 130.265 319.628 135.095 310.789 135.095C302.711 135.095 307.04 130.265 307.04 130.265C312.414 129.004 312.509 125.081 311.8 121.366L321.339 113.616Z" fill="#E58A7B"/>
<path d="M317.451 116.778L311.809 121.366C311.984 122.22 312.085 123.087 312.111 123.958C313.762 125.6 317.071 121.444 317.408 119.318C317.579 118.482 317.594 117.62 317.451 116.778Z" fill="#CF6F64"/>
<path d="M302.106 113.555C302.499 114.236 303.028 114.828 303.659 115.295C304.291 115.762 305.013 116.093 305.778 116.268C307.852 116.726 308.889 114.817 308.318 112.899C307.809 111.171 306.107 108.847 303.998 109.244C303.547 109.337 303.124 109.537 302.766 109.827C302.407 110.117 302.123 110.489 301.938 110.911C301.753 111.333 301.671 111.793 301.701 112.254C301.73 112.714 301.869 113.16 302.106 113.555V113.555Z" fill="#CF6F64"/>
<path d="M305.536 98.3232C302.305 99.8006 301.164 112.64 305.225 114.54C309.286 116.441 311.653 95.5152 305.536 98.3232Z" fill="#263238"/>
<path d="M322.324 106.453C321.546 112.899 321.46 116.692 318.004 119.992C316.933 121.088 315.58 121.866 314.095 122.24C312.61 122.615 311.05 122.572 309.587 122.116C308.125 121.661 306.817 120.809 305.808 119.657C304.799 118.505 304.128 117.096 303.869 115.586C302.823 109.797 304.266 100.233 310.729 97.6665C312.087 97.0676 313.58 96.8427 315.054 97.0153C316.528 97.1879 317.929 97.7515 319.112 98.6479C320.295 99.5443 321.216 100.741 321.781 102.113C322.346 103.486 322.533 104.984 322.324 106.453V106.453Z" fill="#E58A7B"/>
<path d="M311.705 101.658C316.492 100.44 320.008 99.6105 318.747 103.594C317.079 108.916 315.075 114.065 317.762 114.299C319.404 114.445 326.661 111.37 325.737 108.251C324.933 105.538 328.329 104.795 328.933 103.421C331.171 98.4441 324.769 99.1008 325.909 96.0768C327.05 93.0528 320.725 88.1798 317.269 90.6077C311.645 94.5302 301.994 94.4697 307.066 88.0157C310.703 83.4105 304.214 84.3523 304.214 84.3523C304.214 84.3523 308.137 86.6765 301.536 90.2707C294.555 94.1069 300.957 104.414 311.705 101.658Z" fill="#263238"/>
<path d="M324.864 113.555C323.919 114.923 322.499 115.89 320.881 116.268C318.747 116.726 317.926 114.817 318.73 112.899C319.447 111.171 321.417 108.847 323.456 109.244C325.495 109.642 325.961 111.862 324.864 113.555Z" fill="#E58A7B"/>
<path d="M293.242 188.3C293.242 188.3 287.401 240.572 286.943 260.41C286.476 281.042 306.737 345.419 306.737 345.419L317.105 341.099C317.105 341.099 305.009 282.277 306.737 262.017C308.569 239.924 316.138 188.335 316.138 188.335L293.242 188.3Z" fill="#3B75BE"/>
<path opacity="0.2" d="M307.757 202.651C303.1 212.311 306.236 231.414 308.759 242.732C309.718 234.74 310.859 226.066 311.939 218.039C311.835 205.701 310.876 196.171 307.757 202.651Z" fill="black"/>
<path d="M316.647 337.677C316.699 337.677 317.874 340.978 317.874 340.978L305.917 346.006L304.033 342.498L316.647 337.677Z" fill="#3B75BE"/>
<path d="M305.588 188.3C305.588 188.3 310.055 238.015 313.01 256.634C316.259 277.033 328.994 344.969 328.994 344.969H340.908C340.908 344.969 333.772 278.683 332.424 258.483C330.955 236.572 328.035 188.3 328.035 188.3H305.588Z" fill="#3B75BE"/>
<path d="M341.09 341.867C341.142 341.867 341.487 345.194 341.487 345.194H328.389L327.456 341.375L341.09 341.867Z" fill="#3B75BE"/>
<path opacity="0.2" d="M336.528 337.928C336.501 337.928 336.475 337.919 336.454 337.901C336.433 337.884 336.42 337.859 336.416 337.833C336.347 337.228 329.91 277.353 328.7 259.209C327.387 239.527 324.743 195.869 324.717 195.428C324.716 195.414 324.718 195.399 324.722 195.386C324.727 195.372 324.735 195.36 324.744 195.349C324.754 195.339 324.766 195.33 324.779 195.324C324.792 195.319 324.806 195.316 324.821 195.316V195.316C324.849 195.316 324.876 195.326 324.897 195.346C324.918 195.365 324.931 195.391 324.933 195.42C324.933 195.86 327.603 239.484 328.916 259.2C330.126 277.344 336.563 337.176 336.623 337.824C336.625 337.838 336.625 337.853 336.621 337.867C336.618 337.881 336.611 337.894 336.602 337.906C336.593 337.917 336.582 337.926 336.569 337.933C336.557 337.94 336.542 337.944 336.528 337.945V337.928Z" fill="black"/>
<path d="M312.44 108.251C312.44 108.778 312.111 109.201 311.766 109.201C311.42 109.201 311.17 108.778 311.204 108.251C311.239 107.724 311.532 107.3 311.878 107.3C312.224 107.3 312.474 107.732 312.44 108.251Z" fill="#263238"/>
<path d="M306.513 108.251C306.513 108.778 306.176 109.201 305.839 109.201C305.502 109.201 305.243 108.778 305.268 108.251C305.294 107.724 305.605 107.3 305.951 107.3C306.297 107.3 306.547 107.732 306.513 108.251Z" fill="#263238"/>
<path d="M308.379 108.518C307.658 110.128 306.728 111.635 305.614 113.003C306.478 113.867 308.094 113.469 308.094 113.469L308.379 108.518Z" fill="#DF5753"/>
<path d="M308.534 115.672C308.514 115.672 308.495 115.668 308.476 115.66C308.458 115.652 308.441 115.641 308.427 115.626C308.414 115.612 308.403 115.594 308.396 115.576C308.389 115.557 308.386 115.537 308.387 115.517C308.39 115.475 308.408 115.435 308.439 115.406C308.469 115.377 308.51 115.361 308.552 115.361C309.212 115.366 309.866 115.222 310.464 114.941C311.062 114.66 311.59 114.249 312.008 113.737C312.038 113.711 312.076 113.696 312.116 113.696C312.155 113.696 312.194 113.711 312.224 113.737C312.252 113.766 312.267 113.805 312.267 113.845C312.267 113.885 312.252 113.924 312.224 113.953C311.776 114.497 311.212 114.933 310.574 115.231C309.936 115.528 309.239 115.679 308.534 115.672V115.672Z" fill="#263238"/>
<path d="M313.494 106.661C313.452 106.682 313.406 106.693 313.36 106.693C313.313 106.693 313.267 106.682 313.226 106.661C312.903 106.452 312.535 106.322 312.152 106.281C311.769 106.241 311.383 106.291 311.023 106.428C310.988 106.445 310.949 106.455 310.91 106.458C310.871 106.46 310.832 106.455 310.795 106.442C310.758 106.429 310.724 106.409 310.695 106.383C310.665 106.357 310.642 106.325 310.625 106.289C310.593 106.212 310.592 106.126 310.623 106.049C310.654 105.971 310.713 105.909 310.789 105.875C311.241 105.69 311.731 105.617 312.217 105.662C312.702 105.708 313.17 105.869 313.58 106.134C313.613 106.156 313.642 106.185 313.663 106.219C313.685 106.252 313.7 106.29 313.708 106.329C313.715 106.369 313.714 106.409 313.706 106.448C313.697 106.487 313.681 106.524 313.658 106.557C313.614 106.607 313.557 106.643 313.494 106.661V106.661Z" fill="#263238"/>
<path d="M304.223 104.933C304.177 104.922 304.135 104.898 304.102 104.864C304.073 104.836 304.051 104.802 304.035 104.765C304.019 104.728 304.011 104.688 304.011 104.648C304.011 104.607 304.019 104.568 304.035 104.531C304.051 104.493 304.073 104.46 304.102 104.432C304.433 104.06 304.846 103.77 305.307 103.585C305.769 103.399 306.267 103.322 306.763 103.36C306.803 103.366 306.841 103.381 306.875 103.402C306.909 103.424 306.938 103.452 306.961 103.485C306.984 103.518 306.999 103.556 307.007 103.595C307.014 103.635 307.014 103.675 307.005 103.715C306.987 103.795 306.94 103.865 306.873 103.913C306.806 103.961 306.724 103.982 306.642 103.974V103.974C306.25 103.949 305.857 104.014 305.493 104.164C305.129 104.313 304.804 104.544 304.543 104.838C304.503 104.882 304.453 104.914 304.396 104.93C304.34 104.947 304.28 104.948 304.223 104.933V104.933Z" fill="#263238"/>
<path d="M336.727 140.244L327.741 137.851C327.741 137.851 318.928 159.546 315.809 160.955C311.576 162.89 300.853 169.595 296.292 172.765C296.041 173.845 296.24 176.705 296.81 177.492C304.586 176.075 319.473 170.346 322.583 167.435C329.676 160.79 336.727 140.244 336.727 140.244Z" fill="#E58A7B"/>
<path d="M330.454 354.154C330.016 354.188 329.579 354.069 329.219 353.817C329.107 353.716 329.024 353.588 328.977 353.446C328.93 353.304 328.921 353.151 328.951 353.004C328.956 352.913 328.986 352.824 329.038 352.748C329.09 352.672 329.161 352.611 329.244 352.572C329.97 352.201 332.001 353.488 332.234 353.635C332.26 353.651 332.279 353.675 332.29 353.703C332.301 353.731 332.303 353.762 332.294 353.791C332.287 353.821 332.272 353.849 332.251 353.871C332.23 353.894 332.203 353.911 332.173 353.92C331.61 354.059 331.034 354.137 330.454 354.154ZM329.59 352.806C329.525 352.791 329.457 352.791 329.391 352.806C329.358 352.823 329.331 352.849 329.312 352.881C329.294 352.913 329.285 352.95 329.288 352.987C329.265 353.088 329.269 353.193 329.299 353.291C329.329 353.39 329.385 353.479 329.46 353.549C329.797 353.851 330.644 353.886 331.759 353.67C331.095 353.233 330.348 352.938 329.564 352.806H329.59Z" fill="#3B75BE"/>
<path d="M332.13 353.92C332.108 353.928 332.084 353.928 332.061 353.92C331.413 353.557 330.195 352.132 330.376 351.406C330.403 351.291 330.468 351.188 330.561 351.115C330.653 351.041 330.768 351.001 330.886 351C331.002 350.984 331.12 350.994 331.232 351.028C331.344 351.063 331.447 351.121 331.534 351.199C332.251 351.812 332.294 353.696 332.294 353.791C332.299 353.819 332.293 353.848 332.279 353.873C332.265 353.898 332.243 353.918 332.217 353.929C332.188 353.935 332.158 353.932 332.13 353.92ZM330.972 351.285H330.912C330.713 351.285 330.687 351.397 330.679 351.441C330.575 351.864 331.344 352.944 331.983 353.454C331.98 352.724 331.754 352.012 331.335 351.415C331.235 351.327 331.105 351.281 330.972 351.285V351.285Z" fill="#3B75BE"/>
<path d="M307.515 353.074C306.986 353.258 306.411 353.258 305.882 353.074C305.762 353.009 305.66 352.914 305.586 352.8C305.512 352.685 305.468 352.553 305.459 352.417C305.448 352.332 305.459 352.245 305.49 352.165C305.522 352.085 305.574 352.014 305.64 351.959C306.331 351.337 309.156 351.959 309.476 352.08C309.507 352.088 309.533 352.106 309.552 352.131C309.571 352.156 309.581 352.187 309.58 352.218C309.581 352.251 309.573 352.283 309.556 352.31C309.539 352.338 309.514 352.36 309.485 352.374C308.849 352.661 308.19 352.895 307.515 353.074V353.074ZM306.107 352.045C306.008 352.065 305.916 352.11 305.839 352.175C305.811 352.196 305.79 352.224 305.778 352.256C305.766 352.288 305.763 352.323 305.77 352.356C305.775 352.447 305.803 352.535 305.852 352.612C305.9 352.689 305.967 352.753 306.046 352.797C306.504 353.039 307.567 352.849 308.94 352.27C308.015 352.037 307.057 351.961 306.107 352.045V352.045Z" fill="#3B75BE"/>
<path d="M309.459 352.374H309.39C308.526 352.218 306.798 351.225 306.746 350.482C306.746 350.309 306.824 350.067 307.238 349.929C307.379 349.879 307.527 349.858 307.676 349.866C307.824 349.875 307.969 349.914 308.102 349.98C309.036 350.438 309.528 352.097 309.554 352.175C309.56 352.201 309.559 352.228 309.552 352.254C309.544 352.28 309.53 352.303 309.511 352.322C309.498 352.343 309.48 352.361 309.459 352.374V352.374ZM307.411 350.188H307.325C307.057 350.283 307.057 350.395 307.057 350.43C307.057 350.879 308.31 351.7 309.182 351.976C308.981 351.282 308.556 350.675 307.973 350.248C307.799 350.16 307.599 350.139 307.411 350.188Z" fill="#3B75BE"/>
<path d="M297.026 172.256L288.014 176.403L286.969 178.995L290.295 181.233C290.295 181.233 296.516 180.559 298.287 176.558L297.026 172.256Z" fill="#E58A7B"/>
<path d="M297.406 177.638C297.205 175.907 296.633 174.239 295.73 172.748L297.156 171.677C298.228 173.395 298.912 175.326 299.16 177.336L297.406 177.638Z" fill="#263238"/>
<path d="M298.944 173.483C299.135 173.782 299.228 174.133 299.212 174.488C299.196 174.843 299.071 175.184 298.854 175.465C298.637 175.746 298.339 175.954 298 176.059C297.661 176.165 297.298 176.164 296.96 176.056C296.621 175.948 296.325 175.738 296.11 175.455C295.895 175.172 295.773 174.83 295.759 174.476C295.746 174.121 295.842 173.77 296.034 173.472C296.227 173.174 296.507 172.942 296.836 172.809C297.205 172.62 297.634 172.586 298.029 172.712C298.423 172.838 298.752 173.115 298.944 173.483V173.483Z" fill="#263238"/>
<path d="M281.923 179.755L283.124 180.965L291.211 177.509L288.014 176.403L281.923 179.755Z" fill="#E58A7B"/>
<path opacity="0.2" d="M316.647 337.677C316.699 337.677 317.874 340.978 317.874 340.978L305.917 346.006L304.033 342.498L316.647 337.677Z" fill="black"/>
<path opacity="0.2" d="M341.09 341.867C341.142 341.867 341.487 345.194 341.487 345.194H328.389L327.456 341.375L341.09 341.867Z" fill="black"/>
<path d="M339.068 137.756C341.444 145.42 332.156 155.9 332.156 155.9L319.326 150.664C320.847 146.235 322.6 141.889 324.579 137.644C328.519 129.151 336.666 130.023 339.068 137.756Z" fill="#3B75BE"/>
<path opacity="0.2" d="M339.068 137.756C341.444 145.42 332.156 155.9 332.156 155.9L319.326 150.664C320.847 146.235 322.6 141.889 324.579 137.644C328.519 129.151 336.666 130.023 339.068 137.756Z" fill="black"/>
<path d="M211.576 60.9725H206.055V61.8624H211.576V60.9725Z" fill="#3B75BE"/>
<path d="M283.045 96.1947L282.377 111.023L283.266 111.063L283.934 96.2348L283.045 96.1947Z" fill="#3B75BE"/>
<path d="M281.327 64.9642H179.375L169.888 277.266H271.84L281.327 64.9642Z" fill="#3B75BE"/>
<path opacity="0.56" d="M278.286 67.8845H176.334L166.847 280.187H268.799L278.286 67.8845Z" fill="#FAFAFA"/>
<path opacity="0.07" d="M275.245 70.7961H173.293L163.797 283.098H265.749L275.245 70.7961Z" fill="#3B75BE"/>
<path d="M263.641 163.391H176.619L175.893 179.634H262.915L263.641 163.391Z" fill="white"/>
<path d="M224.476 151.537H177.146L176.826 158.803H224.156L224.476 151.537Z" fill="#3B75BE"/>
<path d="M261.68 207.23H174.658L173.932 223.474H260.954L261.68 207.23Z" fill="white"/>
<path opacity="0.47" d="M245.722 245.411H187.203L186.33 264.876H244.849L245.722 245.411Z" fill="#3B75BE"/>
<path d="M241.808 267.9H183.289C183.263 267.907 183.237 267.907 183.211 267.9C183.203 267.875 183.203 267.848 183.211 267.823L184.075 248.348C184.075 248.335 184.078 248.322 184.083 248.31C184.088 248.298 184.096 248.287 184.106 248.278C184.116 248.269 184.127 248.262 184.14 248.258C184.152 248.253 184.166 248.252 184.179 248.253H242.698C242.708 248.248 242.72 248.245 242.732 248.245C242.744 248.245 242.756 248.248 242.767 248.253C242.773 248.264 242.776 248.276 242.776 248.288C242.776 248.3 242.773 248.312 242.767 248.322L241.92 267.84C241.91 267.86 241.893 267.877 241.873 267.888C241.853 267.898 241.83 267.903 241.808 267.9V267.9ZM183.393 267.693H241.704L242.568 248.426H184.257L183.393 267.693Z" fill="white"/>
<path d="M214.255 195.376H175.185L174.865 202.651H213.926L214.255 195.376Z" fill="#3B75BE"/>
<path d="M244.607 110.92C244.384 115.648 242.703 120.19 239.795 123.924C237.642 126.744 234.872 129.033 231.696 130.616C228.521 132.199 225.026 133.034 221.478 133.056C218.611 133.078 215.77 132.513 213.129 131.395C210.489 130.277 208.106 128.631 206.126 126.557C204.146 124.483 202.612 122.026 201.617 119.337C200.623 116.648 200.19 113.783 200.344 110.92C200.648 104.979 203.21 99.3791 207.506 95.2645C211.802 91.1499 217.508 88.832 223.456 88.7847C226.326 88.7579 229.17 89.3198 231.813 90.4356C234.457 91.5514 236.843 93.1974 238.825 95.272C240.808 97.3465 242.343 99.8055 243.338 102.497C244.332 105.189 244.764 108.055 244.607 110.92V110.92Z" fill="white"/>
<path d="M246.689 93.4157C246.633 94.6726 246.186 95.8807 245.411 96.8717C244.837 97.6207 244.1 98.2288 243.255 98.6496C242.411 99.0703 241.481 99.2926 240.538 99.2995C239.623 99.305 238.722 99.0867 237.912 98.6635C237.101 98.2403 236.407 97.6251 235.889 96.8717C235.204 95.8536 234.864 94.6417 234.922 93.4157C235.005 91.8383 235.687 90.3523 236.829 89.2606C237.97 88.1688 239.485 87.5536 241.065 87.5405C241.827 87.5335 242.582 87.6826 243.284 87.9787C243.986 88.2748 244.62 88.7115 245.147 89.2619C245.674 89.8123 246.083 90.4648 246.348 91.1792C246.613 91.8936 246.729 92.6547 246.689 93.4157V93.4157Z" fill="#3B75BE"/>
<path d="M185.993 171.513C185.952 172.209 185.648 172.863 185.143 173.344C184.638 173.825 183.969 174.097 183.272 174.105C182.935 174.109 182.601 174.044 182.29 173.913C181.98 173.783 181.699 173.591 181.466 173.348C181.233 173.105 181.052 172.817 180.934 172.501C180.817 172.185 180.766 171.849 180.783 171.513C180.821 170.815 181.123 170.158 181.629 169.676C182.135 169.194 182.806 168.924 183.505 168.921C183.841 168.918 184.175 168.984 184.485 169.114C184.795 169.245 185.075 169.438 185.308 169.68C185.541 169.923 185.722 170.211 185.84 170.526C185.957 170.841 186.01 171.177 185.993 171.513V171.513Z" fill="#263238"/>
<path d="M197.64 171.513C197.601 172.21 197.297 172.865 196.792 173.347C196.286 173.828 195.616 174.099 194.918 174.105C194.582 174.107 194.249 174.041 193.94 173.911C193.63 173.78 193.351 173.587 193.118 173.345C192.886 173.102 192.706 172.814 192.589 172.499C192.472 172.184 192.421 171.848 192.439 171.513C192.476 170.816 192.778 170.161 193.282 169.679C193.786 169.197 194.455 168.926 195.152 168.921C195.488 168.917 195.822 168.982 196.133 169.112C196.444 169.242 196.724 169.435 196.957 169.678C197.191 169.921 197.372 170.209 197.489 170.524C197.606 170.84 197.658 171.176 197.64 171.513V171.513Z" fill="#263238"/>
<path d="M209.295 171.513C209.256 172.21 208.953 172.865 208.447 173.347C207.942 173.828 207.272 174.099 206.574 174.105C206.237 174.107 205.904 174.041 205.594 173.911C205.284 173.78 205.004 173.588 204.771 173.345C204.538 173.102 204.357 172.815 204.239 172.5C204.121 172.184 204.069 171.849 204.085 171.513C204.125 170.816 204.428 170.16 204.934 169.679C205.439 169.197 206.109 168.926 206.807 168.921C207.144 168.917 207.478 168.982 207.788 169.112C208.099 169.242 208.38 169.435 208.613 169.678C208.846 169.921 209.027 170.209 209.144 170.524C209.262 170.84 209.313 171.176 209.295 171.513V171.513Z" fill="#263238"/>
<path d="M184.032 215.352C183.99 216.048 183.687 216.703 183.182 217.184C182.676 217.665 182.008 217.936 181.31 217.944C180.974 217.947 180.641 217.881 180.331 217.75C180.021 217.62 179.741 217.427 179.508 217.184C179.275 216.942 179.094 216.654 178.976 216.339C178.858 216.024 178.806 215.688 178.822 215.352C178.862 214.655 179.165 213.999 179.67 213.518C180.176 213.036 180.846 212.765 181.544 212.76C181.88 212.757 182.213 212.823 182.523 212.954C182.833 213.084 183.114 213.277 183.346 213.52C183.579 213.762 183.76 214.05 183.878 214.365C183.996 214.68 184.048 215.016 184.032 215.352Z" fill="#263238"/>
<path d="M195.679 215.352C195.639 216.047 195.337 216.702 194.834 217.183C194.33 217.664 193.662 217.936 192.966 217.944C192.629 217.948 192.295 217.883 191.984 217.753C191.674 217.622 191.393 217.43 191.16 217.187C190.927 216.944 190.746 216.656 190.629 216.34C190.511 216.025 190.46 215.688 190.477 215.352C190.517 214.655 190.82 213.999 191.326 213.518C191.831 213.036 192.501 212.765 193.199 212.76C193.535 212.757 193.868 212.823 194.178 212.954C194.487 213.085 194.767 213.277 194.999 213.52C195.231 213.763 195.411 214.051 195.528 214.366C195.645 214.681 195.696 215.016 195.679 215.352V215.352Z" fill="#263238"/>
<path d="M207.36 215.352C207.321 216.049 207.017 216.705 206.512 217.186C206.006 217.668 205.336 217.939 204.638 217.944C204.302 217.946 203.97 217.879 203.66 217.748C203.351 217.617 203.071 217.424 202.838 217.182C202.606 216.939 202.425 216.652 202.306 216.338C202.188 216.023 202.135 215.688 202.15 215.352C202.192 214.656 202.495 214.001 203.001 213.52C203.506 213.039 204.174 212.768 204.872 212.76C205.208 212.756 205.542 212.821 205.853 212.951C206.164 213.081 206.444 213.274 206.677 213.517C206.911 213.76 207.092 214.048 207.209 214.364C207.326 214.679 207.378 215.016 207.36 215.352V215.352Z" fill="#263238"/>
<path d="M218.989 215.352C218.948 216.048 218.644 216.703 218.139 217.184C217.634 217.665 216.965 217.936 216.268 217.944C215.932 217.945 215.599 217.879 215.29 217.748C214.98 217.617 214.701 217.424 214.468 217.182C214.235 216.939 214.054 216.652 213.936 216.337C213.817 216.023 213.764 215.688 213.78 215.352C213.821 214.656 214.125 214.001 214.63 213.52C215.135 213.039 215.804 212.767 216.501 212.76C216.838 212.757 217.171 212.823 217.481 212.954C217.791 213.084 218.071 213.277 218.304 213.52C218.537 213.762 218.718 214.05 218.836 214.365C218.954 214.68 219.006 215.016 218.989 215.352V215.352Z" fill="#263238"/>
<path d="M230.688 215.352C230.646 216.048 230.343 216.703 229.838 217.184C229.332 217.665 228.664 217.936 227.966 217.944C227.63 217.948 227.296 217.883 226.985 217.753C226.675 217.622 226.394 217.43 226.161 217.187C225.927 216.944 225.747 216.656 225.629 216.34C225.512 216.025 225.46 215.688 225.478 215.352C225.518 214.655 225.821 213.999 226.326 213.518C226.832 213.036 227.502 212.765 228.2 212.76C228.536 212.757 228.869 212.823 229.179 212.954C229.489 213.084 229.77 213.277 230.003 213.52C230.235 213.762 230.416 214.05 230.534 214.365C230.652 214.68 230.704 215.016 230.688 215.352Z" fill="#263238"/>
<path d="M228.92 109.767C232.536 106.231 232.728 100.563 229.348 97.1066C225.969 93.6507 220.297 93.7159 216.681 97.2523C213.065 100.789 212.873 106.457 216.253 109.913C219.632 113.369 225.303 113.304 228.92 109.767Z" fill="#3B75BE"/>
<path d="M239.795 123.924C237.642 126.744 234.872 129.033 231.696 130.616C228.521 132.199 225.026 133.034 221.478 133.056C218.037 133.085 214.643 132.267 211.593 130.675C208.543 129.082 205.932 126.764 203.99 123.924C208.189 119.742 214.834 117.012 222.195 117.012C229.556 117.012 235.967 119.742 239.795 123.924Z" fill="#3B75BE"/>
<path opacity="0.1" d="M228.92 109.767C232.536 106.231 232.728 100.563 229.348 97.1066C225.969 93.6507 220.297 93.7159 216.681 97.2523C213.065 100.789 212.873 106.457 216.253 109.913C219.632 113.369 225.303 113.304 228.92 109.767Z" fill="white"/>
<path opacity="0.1" d="M239.795 123.924C237.642 126.744 234.872 129.033 231.696 130.616C228.521 132.199 225.026 133.034 221.478 133.056C218.037 133.085 214.643 132.267 211.593 130.675C208.543 129.082 205.932 126.764 203.99 123.924C208.189 119.742 214.834 117.012 222.195 117.012C229.556 117.012 235.967 119.742 239.795 123.924Z" fill="white"/>
<path d="M112.674 183.548C111.853 185.345 110.989 187.324 110.238 189.242C109.486 191.16 108.717 193.139 108.052 195.108C106.693 198.991 105.659 202.979 104.959 207.032L104.769 208.302C104.751 208.52 104.771 208.739 104.829 208.95C105.033 209.666 105.354 210.343 105.78 210.954C106.889 212.536 108.176 213.985 109.616 215.274C111.133 216.686 112.725 218.015 114.385 219.257C116.044 220.536 117.789 221.78 119.508 222.955L117.893 225.988C113.787 224.199 109.89 221.965 106.272 219.326C104.342 217.919 102.599 216.269 101.088 214.419C100.192 213.317 99.4935 212.069 99.023 210.73C98.7495 209.893 98.6095 209.018 98.6083 208.138C98.6083 207.93 98.6083 207.628 98.6083 207.481V207.058L98.6947 206.194C99.19 201.692 100.137 197.252 101.52 192.94C102.194 190.814 102.911 188.698 103.732 186.633C104.553 184.568 105.399 182.546 106.445 180.446L112.674 183.548Z" fill="#E58A7B"/>
<path d="M118.29 222.42L124.399 219.326L122.818 226.031C122.818 226.031 118.627 227.206 116.683 225.167L118.29 222.42Z" fill="#E58A7B"/>
<path d="M129.989 220.424L128.364 225.971L122.818 226.031L124.399 219.326L129.989 220.424Z" fill="#E58A7B"/>
<path d="M138.612 151.2C138.938 152.397 139.393 153.556 139.968 154.656C139.8 154.846 139.584 154.988 139.342 155.066C139.1 155.143 138.842 155.154 138.594 155.097L138.612 151.2Z" fill="#DF5753"/>
<path d="M138.43 151.252C138.788 151.252 139.078 150.807 139.078 150.258C139.078 149.71 138.788 149.265 138.43 149.265C138.072 149.265 137.782 149.71 137.782 150.258C137.782 150.807 138.072 151.252 138.43 151.252Z" fill="#263238"/>
<path d="M138.24 149.299L139.553 148.928C139.553 148.928 138.914 149.947 138.24 149.299Z" fill="#263238"/>
<path d="M121.738 157.542C122.524 161.559 123.31 168.929 120.493 171.616C120.493 171.616 121.599 175.694 129.073 175.694C137.29 175.694 132.996 171.616 132.996 171.616C128.511 170.545 128.624 167.219 129.41 164.091L121.738 157.542Z" fill="#E58A7B"/>
<path d="M119.552 148.383C119.966 155.097 120.001 157.948 123.388 161.395C128.494 166.579 136.65 164.609 138.249 157.939C139.692 151.891 138.776 141.938 132.201 139.268C130.757 138.674 129.186 138.457 127.636 138.639C126.086 138.821 124.608 139.395 123.341 140.308C122.075 141.221 121.062 142.441 120.399 143.854C119.736 145.267 119.444 146.826 119.552 148.383V148.383Z" fill="#E58A7B"/>
<path d="M120.217 140.832C116.847 142.059 112.355 141.143 114.117 151.537C115.983 162.544 113.115 166.164 113.115 166.164C113.115 166.164 125.893 168.886 138.94 166C138.94 166 134.957 159.036 136.071 153.904C137.497 147.424 136.374 145.031 136.374 145.031C136.374 145.031 124.952 139.104 120.217 140.832Z" fill="#263238"/>
<path d="M134.473 151.883C134.476 153.159 134.842 154.408 135.527 155.485C136.443 156.885 137.523 156.349 137.791 154.863C138.033 153.559 137.851 151.252 136.685 150.353C135.518 149.455 134.49 150.336 134.473 151.883Z" fill="#E58A7B"/>
<path d="M117.288 141.964C116.32 139.242 120.934 135.052 130.697 136.78C140.46 138.508 140.884 146.638 140.884 146.638L138.914 144.288L139 146.759L128.969 148.686L117.288 141.964Z" fill="#263238"/>
<path d="M118.117 172.074C118.06 171.68 118.159 171.278 118.393 170.956C118.627 170.633 118.977 170.414 119.37 170.346C122.412 169.845 129.324 168.826 132.797 169.309C135.389 169.672 136.063 171.176 136.175 172.411C136.193 172.628 136.164 172.845 136.09 173.049C136.017 173.254 135.9 173.44 135.749 173.595C135.597 173.751 135.415 173.872 135.212 173.951C135.01 174.03 134.793 174.065 134.577 174.053L119.56 173.379C119.206 173.361 118.869 173.221 118.606 172.984C118.343 172.746 118.171 172.425 118.117 172.074V172.074Z" fill="#3B75BE"/>
<path opacity="0.6" d="M118.117 172.074C118.06 171.68 118.159 171.278 118.393 170.956C118.627 170.633 118.977 170.414 119.37 170.346C122.412 169.845 129.324 168.826 132.797 169.309C135.389 169.672 136.063 171.176 136.175 172.411C136.193 172.628 136.164 172.845 136.09 173.049C136.017 173.254 135.9 173.44 135.749 173.595C135.597 173.751 135.415 173.872 135.212 173.951C135.01 174.03 134.793 174.065 134.577 174.053L119.56 173.379C119.206 173.361 118.869 173.221 118.606 172.984C118.343 172.746 118.171 172.425 118.117 172.074V172.074Z" fill="black"/>
<path d="M126.801 323.015L132.373 326.886L141.696 314.245L136.123 310.383L126.801 323.015Z" fill="#E58A7B"/>
<path d="M113.806 322.764L119.69 326.117L127.941 312.751L122.057 309.398L113.806 322.764Z" fill="#E58A7B"/>
<path d="M141.687 314.245L136.883 320.76L131.311 316.898L136.115 310.383L141.687 314.245Z" fill="#CF6F64"/>
<path d="M122.049 309.398L127.941 312.759L123.69 319.645L117.798 316.284L122.049 309.398Z" fill="#CF6F64"/>
<path d="M131.501 214.272C131.501 214.272 153.256 241.687 149.17 267.909C145.878 289.086 126.783 317.762 126.783 317.762L117.806 313.304C124.134 300.625 129.534 287.504 133.963 274.043C135.329 269.865 135.728 265.43 135.129 261.074C134.53 256.719 132.95 252.556 130.507 248.901C119.483 232.805 101.822 242.387 113.702 214.272H131.501Z" fill="#3B75BE"/>
<path opacity="0.6" d="M131.501 214.272C131.501 214.272 153.256 241.687 149.17 267.909C145.878 289.086 126.783 317.762 126.783 317.762L117.806 313.304C124.134 300.625 129.534 287.504 133.963 274.043C135.329 269.865 135.728 265.43 135.129 261.074C134.53 256.719 132.95 252.556 130.507 248.901C119.483 232.805 101.822 242.387 113.702 214.272H131.501Z" fill="black"/>
<path opacity="0.4" d="M142.171 231.88L139.009 228.735C139.009 228.986 145.135 266.803 146.854 277.43C147.869 274.326 148.646 271.149 149.178 267.926C151.2 255.061 146.975 241.92 142.171 231.88Z" fill="black"/>
<path d="M141.212 214.272C141.212 214.272 167.409 248.728 168.152 269.387C168.765 286.667 139.64 320.147 139.64 320.147L131.172 314.669C131.172 314.669 148.219 290.892 152.513 271.469C150.854 252.219 115.776 214.272 115.776 214.272H141.212Z" fill="#3B75BE"/>
<path opacity="0.6" d="M141.212 214.272C141.212 214.272 167.409 248.728 168.152 269.387C168.765 286.667 139.64 320.147 139.64 320.147L131.172 314.669C131.172 314.669 148.219 290.892 152.513 271.469C150.854 252.219 115.776 214.272 115.776 214.272H141.212Z" fill="black"/>
<path d="M108.804 173.154C106.004 173.819 103.317 183.997 103.317 183.997L114.264 191.307C114.264 191.307 117.91 183.254 116.631 179.729C115.309 176.057 112.32 172.316 108.804 173.154Z" fill="#3B75BE"/>
<path opacity="0.2" d="M110.946 179.712L110.186 188.585L114.255 191.315C115.379 188.786 116.211 186.136 116.735 183.419L110.946 179.712Z" fill="black"/>
<path d="M144.452 173.353C144.452 173.353 147.684 174.485 141.212 214.263H113.685C114.152 203.031 114.16 196.119 108.804 173.154C112.658 172.36 116.565 171.846 120.493 171.616C124.655 171.318 128.834 171.318 132.996 171.616C138.37 172.109 144.452 173.353 144.452 173.353Z" fill="#3B75BE"/>
<path d="M147.251 179.712C147.874 181.44 148.53 183.298 149.221 185.086C149.913 186.875 150.569 188.715 151.269 190.529L153.386 195.955L153.922 197.312L154.198 197.986L154.328 198.323C154.328 198.383 154.328 198.383 154.328 198.374C154.17 198.152 153.963 197.969 153.723 197.839C153.381 197.638 152.996 197.522 152.6 197.502C152.271 197.491 151.943 197.553 151.641 197.683C151.243 197.865 151.243 197.942 151.252 197.934C151.324 197.876 151.388 197.809 151.442 197.735C151.92 197.107 152.334 196.433 152.677 195.722C153.084 194.927 153.472 194.08 153.861 193.225C154.621 191.497 155.321 189.708 156.021 187.903C156.721 186.097 157.386 184.274 158.034 182.434L160.004 176.921L163.331 177.785C162.674 181.725 161.827 185.561 160.808 189.467C160.315 191.411 159.736 193.337 159.08 195.281C158.751 196.258 158.388 197.225 157.974 198.219C157.541 199.297 157.009 200.333 156.384 201.312C156.154 201.642 155.9 201.953 155.624 202.245C155.182 202.722 154.647 203.101 154.051 203.36C153.523 203.587 152.95 203.693 152.375 203.671C151.731 203.647 151.104 203.459 150.552 203.126C149.901 202.72 149.361 202.159 148.979 201.493C148.85 201.269 148.738 201.044 148.66 200.88L148.496 200.552L148.167 199.878L147.511 198.539C146.647 196.741 145.783 194.927 145.031 193.104C144.279 191.281 143.484 189.432 142.741 187.574C141.998 185.717 141.333 183.859 140.702 181.855L147.251 179.712Z" fill="#E58A7B"/>
<path d="M144.452 173.353C147.761 174.139 151.485 183.92 151.485 183.92L141.644 192.292C141.644 192.292 135.276 181.63 136.564 178.114C137.903 174.45 140.132 172.325 144.452 173.353Z" fill="#3B75BE"/>
<path d="M161.568 173.828L165.024 170.942L167.426 174.683L165.655 177.803C165.655 177.803 162.838 180.395 160.35 179.073C159.955 178.185 159.86 177.193 160.08 176.246C160.3 175.3 160.822 174.451 161.568 173.828V173.828Z" fill="#E58A7B"/>
<path d="M171.262 170.951L171.003 171.893L165.534 172.809L164.998 170.942L171.262 170.951Z" fill="#E58A7B"/>
<path d="M140.314 320.587L130.447 314.211L132.218 311.135L143.303 317.952L140.314 320.587Z" fill="#3B75BE"/>
<path d="M123.552 325.668C122.686 325.562 121.854 325.267 121.116 324.804C121.085 324.793 121.059 324.773 121.04 324.747C121.021 324.72 121.011 324.689 121.011 324.657C121.011 324.624 121.021 324.593 121.04 324.567C121.059 324.54 121.085 324.52 121.116 324.51C121.383 324.423 123.708 323.706 124.381 324.259C124.457 324.322 124.515 324.404 124.548 324.497C124.582 324.59 124.59 324.689 124.572 324.786C124.56 324.942 124.508 325.092 124.422 325.222C124.336 325.352 124.218 325.458 124.079 325.529C123.917 325.618 123.736 325.665 123.552 325.668V325.668ZM121.608 324.717C122.688 325.27 123.552 325.469 123.967 325.261C124.057 325.211 124.133 325.139 124.187 325.051C124.242 324.964 124.273 324.863 124.278 324.76C124.278 324.622 124.278 324.562 124.2 324.527C123.837 324.233 122.541 324.458 121.591 324.717H121.608Z" fill="#263238"/>
<path d="M121.176 324.864C121.13 324.863 121.087 324.845 121.055 324.812C121.042 324.788 121.035 324.762 121.035 324.734C121.035 324.707 121.042 324.681 121.055 324.657C121.055 324.579 121.617 322.704 122.498 322.281C122.61 322.229 122.733 322.203 122.856 322.203C122.98 322.203 123.102 322.229 123.215 322.281C123.336 322.319 123.441 322.397 123.513 322.502C123.585 322.607 123.62 322.732 123.612 322.859C123.552 323.637 121.971 324.708 121.245 324.89L121.176 324.864ZM122.852 322.505C122.768 322.508 122.686 322.528 122.61 322.566C122.075 322.825 121.634 323.836 121.418 324.449C122.178 324.13 123.224 323.283 123.258 322.808C123.258 322.73 123.258 322.635 123.059 322.548C122.995 322.514 122.925 322.49 122.852 322.479V322.505Z" fill="#263238"/>
<path d="M135.881 329.4C134.905 329.4 133.548 328.147 132.805 327.378C132.786 327.352 132.776 327.32 132.776 327.288C132.776 327.255 132.786 327.223 132.805 327.197C132.823 327.169 132.847 327.146 132.876 327.131C132.905 327.116 132.937 327.109 132.97 327.11C133.315 327.11 136.313 327.56 136.737 328.406C136.781 328.482 136.805 328.569 136.805 328.657C136.805 328.745 136.781 328.832 136.737 328.908C136.673 329.039 136.577 329.153 136.458 329.238C136.338 329.322 136.2 329.375 136.054 329.391L135.881 329.4ZM133.376 327.499C134.464 328.553 135.423 329.141 135.968 329.072C136.063 329.059 136.154 329.024 136.232 328.968C136.31 328.912 136.374 328.838 136.417 328.752C136.436 328.722 136.447 328.688 136.447 328.653C136.447 328.617 136.436 328.583 136.417 328.553C136.192 328.087 134.594 327.689 133.376 327.499Z" fill="#263238"/>
<path d="M133.471 327.456C133.277 327.461 133.083 327.447 132.892 327.413C132.865 327.409 132.84 327.398 132.819 327.381C132.798 327.365 132.781 327.343 132.771 327.318C132.758 327.292 132.751 327.264 132.751 327.236C132.751 327.207 132.758 327.179 132.771 327.154C132.823 327.093 133.989 325.685 135.095 325.59C135.408 325.565 135.718 325.665 135.959 325.866C136.296 326.16 136.279 326.419 136.192 326.583C135.976 327.171 134.482 327.456 133.471 327.456ZM133.246 327.136C134.214 327.188 135.76 326.868 135.959 326.445C135.959 326.445 136.028 326.307 135.804 326.117C135.714 326.039 135.61 325.981 135.497 325.945C135.384 325.909 135.265 325.897 135.147 325.909C134.402 326.117 133.739 326.549 133.246 327.145V327.136Z" fill="#263238"/>
<path d="M121.409 323.931L114.083 321.857C113.956 321.819 113.82 321.829 113.701 321.885C113.581 321.94 113.486 322.038 113.435 322.16L110.964 327.715C110.905 327.858 110.878 328.01 110.884 328.164C110.889 328.318 110.927 328.468 110.994 328.606C111.062 328.744 111.158 328.866 111.277 328.964C111.395 329.062 111.533 329.134 111.681 329.175C114.273 329.849 115.517 330.039 118.74 330.964C120.727 331.517 123.561 332.545 126.3 333.323C129.038 334.1 129.954 331.43 128.892 330.86C124.088 328.32 123.708 326.54 122.394 324.639C122.159 324.295 121.81 324.044 121.409 323.931V323.931Z" fill="#3B75BE"/>
<path d="M133.004 326.367L126.749 322.047C126.643 321.97 126.512 321.934 126.381 321.947C126.251 321.96 126.129 322.02 126.04 322.116L121.893 326.575C121.792 326.69 121.717 326.825 121.672 326.972C121.627 327.119 121.614 327.273 121.634 327.425C121.654 327.577 121.705 327.723 121.786 327.854C121.866 327.984 121.973 328.096 122.1 328.182C124.304 329.659 125.444 330.255 128.2 332.165C129.928 333.34 133.272 335.949 135.605 337.573C137.938 339.198 139.674 336.969 138.845 336.087C135.13 332.122 134.317 329.633 133.704 327.378C133.597 326.969 133.35 326.611 133.004 326.367Z" fill="#3B75BE"/>
<path d="M127.932 318.332L116.657 312.725L117.824 309.666L129.868 315.576L127.932 318.332Z" fill="#3B75BE"/>
<path d="M113.27 212.648L112.32 215.136C112.225 215.326 112.45 215.525 112.769 215.525H141.35C141.601 215.525 141.808 215.404 141.826 215.248L142.068 212.777C142.068 212.613 141.869 212.466 141.601 212.466H113.72C113.636 212.458 113.551 212.471 113.473 212.502C113.395 212.534 113.325 212.584 113.27 212.648V212.648Z" fill="#3B75BE"/>
<path opacity="0.4" d="M113.27 212.648L112.32 215.136C112.225 215.326 112.45 215.525 112.769 215.525H141.35C141.601 215.525 141.808 215.404 141.826 215.248L142.068 212.777C142.068 212.613 141.869 212.466 141.601 212.466H113.72C113.636 212.458 113.551 212.471 113.473 212.502C113.395 212.534 113.325 212.584 113.27 212.648V212.648Z" fill="white"/>
<path d="M117.772 215.767H117.02C116.873 215.767 116.761 215.689 116.77 215.594L117.124 212.388C117.124 212.302 117.262 212.224 117.409 212.224H118.161C118.308 212.224 118.42 212.302 118.411 212.388L118.057 215.594C118.048 215.689 117.919 215.767 117.772 215.767Z" fill="#3B75BE"/>
<path d="M135.397 215.767H134.654C134.508 215.767 134.395 215.689 134.404 215.594L134.749 212.388C134.749 212.302 134.896 212.224 135.043 212.224H135.786C135.933 212.224 136.054 212.302 136.037 212.388L135.691 215.594C135.648 215.689 135.553 215.767 135.397 215.767Z" fill="#3B75BE"/>
<g style="mix-blend-mode:multiply">
<path d="M117.115 362.085C129.899 362.085 140.262 361.335 140.262 360.409C140.262 359.483 129.899 358.733 117.115 358.733C104.332 358.733 93.9686 359.483 93.9686 360.409C93.9686 361.335 104.332 362.085 117.115 362.085Z" fill="#F5F5F5"/>
</g>
<path d="M131.216 358.042C127.12 356.849 122.576 355.32 119.828 353.722C119.75 353.67 119.664 353.644 119.586 353.601V335.059H127.872C128.501 335.022 129.092 334.746 129.524 334.287C129.956 333.829 130.197 333.223 130.197 332.592C130.197 331.962 129.956 331.356 129.524 330.898C129.092 330.439 128.501 330.163 127.872 330.126H119.629V245.609H114.653V330.126H106.419C106.083 330.106 105.746 330.155 105.429 330.27C105.113 330.385 104.823 330.563 104.578 330.794C104.333 331.025 104.138 331.304 104.004 331.613C103.871 331.922 103.802 332.256 103.802 332.592C103.802 332.929 103.871 333.263 104.004 333.572C104.138 333.881 104.333 334.16 104.578 334.391C104.823 334.622 105.113 334.8 105.429 334.915C105.746 335.03 106.083 335.079 106.419 335.059H114.653V353.575C114.575 353.575 114.497 353.644 114.419 353.696C111.629 355.32 107.119 356.849 103.023 358.016C102.747 358.099 102.509 358.279 102.354 358.523C102.198 358.767 102.135 359.058 102.176 359.344C102.217 359.63 102.358 359.892 102.576 360.083C102.793 360.273 103.071 360.38 103.36 360.383H130.879C131.155 360.364 131.416 360.251 131.619 360.063C131.822 359.875 131.954 359.623 131.994 359.349C132.033 359.075 131.977 358.795 131.836 358.557C131.694 358.32 131.475 358.138 131.216 358.042Z" fill="#E0E0E0"/>
<path d="M132.486 237.004H101.762C99.2901 237.004 97.2864 239.008 97.2864 241.479V250.612C97.2864 253.084 99.2901 255.087 101.762 255.087H132.486C134.957 255.087 136.961 253.084 136.961 250.612V241.479C136.961 239.008 134.957 237.004 132.486 237.004Z" fill="#3B75BE"/>
<path d="M101.477 255.096V256.668C101.477 257.964 102.885 259.019 104.613 259.019H129.669C131.397 259.019 132.805 257.964 132.805 256.668V255.096H101.477Z" fill="#3B75BE"/>
<path opacity="0.3" d="M101.477 255.096V256.668C101.477 257.964 102.885 259.019 104.613 259.019H129.669C131.397 259.019 132.805 257.964 132.805 256.668V255.096H101.477Z" fill="white"/>
</svg>
