<svg width="170" height="39" viewBox="0 0 170 39" fill="none" xmlns="http://www.w3.org/2000/svg">
<path d="M0.290975 3.85638C0.309234 1.72656 2.05059 0.0148018 4.18041 0.0330607L34.2601 0.290934C36.39 0.309193 38.1017 2.05055 38.0834 4.18037L37.8256 34.2601C37.8073 36.3899 36.066 38.1017 33.9361 38.0834L3.85642 37.8255C1.7266 37.8073 0.0148429 36.0659 0.0331018 33.9361L0.290975 3.85638Z" fill="#3B75BE"/>
<path d="M11.4366 11.6758H19.0956C20.8696 11.6758 22.4431 12.0074 23.816 12.6708C25.1889 13.3341 26.2533 14.2751 27.0092 15.4937C27.7651 16.7124 28.143 18.1393 28.143 19.7745C28.143 21.4096 27.7651 22.8365 27.0092 24.0552C26.2533 25.2739 25.1889 26.2148 23.816 26.8782C22.4431 27.5415 20.8696 27.8731 19.0956 27.8731H11.4366V11.6758ZM18.9105 24.2172C20.2989 24.2172 21.4095 23.8238 22.2425 23.0371C23.091 22.2503 23.5152 21.1628 23.5152 19.7745C23.5152 18.3861 23.091 17.2986 22.2425 16.5119C21.4095 15.7251 20.2989 15.3318 18.9105 15.3318H16.0181V24.2172H18.9105Z" fill="white"/>
<path d="M54.1377 28.6771C52.5334 28.6771 51.0834 28.3223 49.7876 27.6127C48.5072 26.9031 47.4968 25.9235 46.7564 24.674C46.0313 23.4091 45.6688 21.9976 45.6688 20.4395C45.6688 18.8815 46.0313 17.4777 46.7564 16.2282C47.4968 14.9633 48.5149 13.976 49.8107 13.2664C51.1065 12.5568 52.5566 12.202 54.1609 12.202C55.3641 12.202 56.4748 12.4026 57.4929 12.8036C58.511 13.2047 59.3749 13.7909 60.0845 14.5622L58.9969 15.6498C57.732 14.3694 56.1354 13.7292 54.2072 13.7292C52.9268 13.7292 51.7621 14.0223 50.7131 14.6085C49.6642 15.1947 48.8389 15.9968 48.2373 17.015C47.6511 18.0331 47.358 19.1746 47.358 20.4395C47.358 21.7045 47.6511 22.846 48.2373 23.8641C48.8389 24.8823 49.6642 25.6844 50.7131 26.2706C51.7621 26.8568 52.9268 27.1499 54.2072 27.1499C56.1508 27.1499 57.7474 26.502 58.9969 25.2062L60.0845 26.2937C59.3749 27.065 58.5033 27.6589 57.4698 28.0754C56.4516 28.4765 55.341 28.6771 54.1377 28.6771Z" fill="#3C3C3C"/>
<path d="M70.4763 28.6771C68.872 28.6771 67.4142 28.3223 66.103 27.6127C64.8072 26.8876 63.7891 25.9004 63.0486 24.6509C62.3236 23.4014 61.9611 21.9976 61.9611 20.4395C61.9611 18.8815 62.3236 17.4777 63.0486 16.2282C63.7891 14.9787 64.8072 13.9992 66.103 13.2896C67.4142 12.5645 68.872 12.202 70.4763 12.202C72.0806 12.202 73.5229 12.5568 74.8033 13.2664C76.0991 13.976 77.1172 14.9633 77.8577 16.2282C78.5981 17.4777 78.9683 18.8815 78.9683 20.4395C78.9683 21.9976 78.5981 23.4091 77.8577 24.674C77.1172 25.9235 76.0991 26.9031 74.8033 27.6127C73.5229 28.3223 72.0806 28.6771 70.4763 28.6771ZM70.4763 27.1499C71.7567 27.1499 72.9136 26.8645 73.9472 26.2937C74.9807 25.7075 75.7906 24.9054 76.3768 23.8873C76.9629 22.8537 77.256 21.7045 77.256 20.4395C77.256 19.1746 76.9629 18.0331 76.3768 17.015C75.7906 15.9814 74.9807 15.1793 73.9472 14.6085C72.9136 14.0223 71.7567 13.7292 70.4763 13.7292C69.1959 13.7292 68.0313 14.0223 66.9823 14.6085C65.9487 15.1793 65.1312 15.9814 64.5295 17.015C63.9433 18.0331 63.6503 19.1746 63.6503 20.4395C63.6503 21.7045 63.9433 22.8537 64.5295 23.8873C65.1312 24.9054 65.9487 25.7075 66.9823 26.2937C68.0313 26.8645 69.1959 27.1499 70.4763 27.1499Z" fill="#3C3C3C"/>
<path d="M93.8668 28.5382L90.1646 23.3319C89.7481 23.3782 89.3162 23.4014 88.8688 23.4014H84.5186V28.5382H82.8064V12.3409H88.8688C90.9359 12.3409 92.5556 12.8345 93.728 13.8218C94.9004 14.809 95.4866 16.1665 95.4866 17.8942C95.4866 19.1592 95.1626 20.2313 94.5147 21.1106C93.8823 21.9744 92.9721 22.5992 91.7843 22.9848L95.7411 28.5382H93.8668ZM88.8225 21.9436C90.4268 21.9436 91.6532 21.5888 92.5016 20.8792C93.3501 20.1696 93.7743 19.1746 93.7743 17.8942C93.7743 16.583 93.3501 15.5803 92.5016 14.8862C91.6532 14.1766 90.4268 13.8218 88.8225 13.8218H84.5186V21.9436H88.8225Z" fill="#3C3C3C"/>
<path d="M110.982 27.0573V28.5382H99.528V12.3409H110.635V13.8218H101.24V19.5834H109.617V21.0412H101.24V27.0573H110.982Z" fill="#3C3C3C"/>
<path d="M116.274 12.3408H123.933C125.707 12.3408 127.28 12.6725 128.653 13.3358C130.026 13.9991 131.091 14.9401 131.847 16.1587C132.602 17.3774 132.98 18.8043 132.98 20.4395C132.98 22.0746 132.602 23.5016 131.847 24.7202C131.091 25.9389 130.026 26.8799 128.653 27.5432C127.28 28.2065 125.707 28.5382 123.933 28.5382H116.274V12.3408ZM123.748 24.8822C125.136 24.8822 126.247 24.4888 127.08 23.7021C127.928 22.9154 128.353 21.8278 128.353 20.4395C128.353 19.0511 127.928 17.9636 127.08 17.1769C126.247 16.3901 125.136 15.9968 123.748 15.9968H120.855V24.8822H123.748Z" fill="#3B75BE"/>
<path d="M143.559 28.8621C141.847 28.8621 140.304 28.4996 138.931 27.7746C137.574 27.0495 136.501 26.0469 135.715 24.7665C134.943 23.4861 134.558 22.0438 134.558 20.4395C134.558 18.8352 134.943 17.3928 135.715 16.1125C136.501 14.8321 137.574 13.8294 138.931 13.1044C140.304 12.3794 141.847 12.0168 143.559 12.0168C145.271 12.0168 146.806 12.3794 148.164 13.1044C149.537 13.8294 150.609 14.8321 151.38 16.1125C152.167 17.3928 152.56 18.8352 152.56 20.4395C152.56 22.0438 152.167 23.4861 151.38 24.7665C150.609 26.0469 149.537 27.0495 148.164 27.7746C146.806 28.4996 145.271 28.8621 143.559 28.8621ZM143.559 25.0673C144.376 25.0673 145.117 24.8745 145.78 24.4888C146.444 24.1032 146.968 23.5633 147.354 22.8691C147.739 22.1595 147.932 21.3496 147.932 20.4395C147.932 19.5293 147.739 18.7272 147.354 18.033C146.968 17.3234 146.444 16.7758 145.78 16.3901C145.117 16.0045 144.376 15.8117 143.559 15.8117C142.741 15.8117 142.001 16.0045 141.338 16.3901C140.674 16.7758 140.15 17.3234 139.764 18.033C139.378 18.7272 139.186 19.5293 139.186 20.4395C139.186 21.3496 139.378 22.1595 139.764 22.8691C140.15 23.5633 140.674 24.1032 141.338 24.4888C142.001 24.8745 142.741 25.0673 143.559 25.0673Z" fill="#3B75BE"/>
<path d="M163.035 28.8621C161.338 28.8621 159.811 28.5073 158.454 27.7977C157.112 27.0727 156.055 26.07 155.284 24.7896C154.512 23.5093 154.127 22.0592 154.127 20.4395C154.127 18.8197 154.512 17.3697 155.284 16.0893C156.055 14.809 157.112 13.814 158.454 13.1044C159.811 12.3794 161.338 12.0168 163.035 12.0168C164.516 12.0168 165.85 12.2791 167.038 12.8036C168.226 13.3281 169.213 14.0839 170 15.0712L167.084 17.7091C166.036 16.4441 164.763 15.8117 163.267 15.8117C162.387 15.8117 161.601 16.0045 160.906 16.3901C160.228 16.7758 159.695 17.3234 159.31 18.033C158.94 18.7272 158.754 19.5293 158.754 20.4395C158.754 21.3496 158.94 22.1595 159.31 22.8691C159.695 23.5633 160.228 24.1032 160.906 24.4888C161.601 24.8745 162.387 25.0673 163.267 25.0673C164.763 25.0673 166.036 24.4348 167.084 23.1699L170 25.8077C169.213 26.795 168.226 27.5509 167.038 28.0754C165.85 28.5999 164.516 28.8621 163.035 28.8621Z" fill="#3B75BE"/>
</svg>
